<svg width="42" height="42" viewBox="0 0 42 42" fill="none" xmlns="http://www.w3.org/2000/svg">
<path d="M16.0302 19.0227C15.8552 19.0052 15.6452 19.0052 15.4527 19.0227C11.2877 18.8827 7.98022 15.4702 7.98022 11.2702C7.98022 6.98274 11.4452 3.50024 15.7502 3.50024C20.0377 3.50024 23.5202 6.98274 23.5202 11.2702C23.5027 15.4702 20.1952 18.8827 16.0302 19.0227Z" stroke="#7F56D9" stroke-width="2.625" stroke-linecap="round" stroke-linejoin="round"/>
<path d="M28.7172 6.99976C32.1122 6.99976 34.8422 9.74726 34.8422 13.1248C34.8422 16.4323 32.2172 19.1273 28.9447 19.2498C28.8047 19.2323 28.6472 19.2323 28.4897 19.2498" stroke="#7F56D9" stroke-width="2.625" stroke-linecap="round" stroke-linejoin="round"/>
<path d="M7.2805 25.4798C3.0455 28.3148 3.0455 32.9348 7.2805 35.7523C12.093 38.9723 19.9855 38.9723 24.798 35.7523C29.033 32.9173 29.033 28.2973 24.798 25.4798C20.003 22.2773 12.1105 22.2773 7.2805 25.4798Z" stroke="#7F56D9" stroke-width="2.625" stroke-linecap="round" stroke-linejoin="round"/>
<path d="M32.0947 35.0002C33.3547 34.7377 34.5447 34.2302 35.5247 33.4777C38.2547 31.4302 38.2547 28.0527 35.5247 26.0052C34.5622 25.2702 33.3897 24.7802 32.1472 24.5002" stroke="#7F56D9" stroke-width="2.625" stroke-linecap="round" stroke-linejoin="round"/>
</svg>
