<svg width="35" height="33" viewBox="0 0 35 33" fill="none" xmlns="http://www.w3.org/2000/svg">
<path d="M5.86377 23.7794C7.80742 23.0123 12.831 21.4539 17.3761 21.357C21.9213 21.2601 26.6459 22.9316 28.44 23.7794" stroke="#7F56D9" stroke-width="2"/>
<path d="M5.02734 14.0735C7.13896 13.3064 12.5967 11.748 17.5346 11.6511C22.4726 11.5542 27.6054 13.2257 29.5546 14.0735" stroke="#7F56D9" stroke-width="2"/>
<path d="M4.9126 12.7413C4.9126 6.92327 8.70484 1.82146 14.2682 1.17087C15.1909 1.06297 16.1977 1 17.2911 1C18.3845 1 19.3913 1.06297 20.314 1.17087C25.8774 1.82146 29.6696 6.92327 29.6696 12.7413C29.6696 15.5491 29.6689 18.1684 29.4643 20.541C29.2595 22.9146 28.8554 24.9678 28.0875 26.6514C27.33 28.312 26.2159 29.6205 24.5471 30.5299C22.8588 31.4498 20.5306 32 17.2911 32C14.0515 32 11.7234 31.4498 10.0351 30.5299C8.3663 29.6205 7.25222 28.312 6.49472 26.6514C5.72676 24.9678 5.32266 22.9146 5.11794 20.541C4.91331 18.1684 4.9126 15.5491 4.9126 12.7413Z" stroke="#7F56D9" stroke-width="2"/>
<path d="M5.02733 14.8015C3.40147 15.0846 0.344851 16.403 1.12526 19.4118C1.90568 22.4206 4.88797 22.2022 6.28157 21.7169" stroke="#7F56D9" stroke-width="2"/>
<path d="M5.02733 14.8015C3.40147 15.0846 0.344851 16.403 1.12526 19.4118C1.90568 22.4206 4.88797 22.2022 6.28157 21.7169" stroke="#7F56D9" stroke-width="2"/>
<path d="M29.9727 14.8015C31.5985 15.0846 34.6551 16.403 33.8747 19.4118C33.0943 22.4206 30.112 22.2022 28.7184 21.7169" stroke="#7F56D9" stroke-width="2"/>
<path d="M20.7505 11.7684C20.7505 13.3016 19.2738 14.7721 17.1516 14.7721C15.0294 14.7721 13.5527 13.3016 13.5527 11.7684C13.5527 10.2352 15.0294 8.76471 17.1516 8.76471C19.2738 8.76471 20.7505 10.2352 20.7505 11.7684Z" fill="white" stroke="#7F56D9" stroke-width="2"/>
<mask id="path-8-inside-1_21_1042" fill="white">
<ellipse cx="11.0196" cy="17.5919" rx="2.09039" ry="1.81985"/>
</mask>
<ellipse cx="11.0196" cy="17.5919" rx="2.09039" ry="1.81985" fill="black"/>
<path d="M11.11 17.5919C11.11 17.5276 11.126 17.4692 11.1468 17.4263C11.1663 17.3862 11.1844 17.3703 11.1845 17.3703C11.1845 17.3703 11.1717 17.3811 11.1422 17.392C11.1137 17.4024 11.0727 17.4118 11.0196 17.4118V21.4118C13.0094 21.4118 15.11 19.9529 15.11 17.5919H11.11ZM11.0196 17.4118C10.9665 17.4118 10.9255 17.4024 10.897 17.392C10.8675 17.3811 10.8547 17.3703 10.8547 17.3703C10.8547 17.3703 10.8729 17.3862 10.8924 17.4263C10.9132 17.4692 10.9292 17.5276 10.9292 17.5919H6.9292C6.9292 19.9529 9.02982 21.4118 11.0196 21.4118V17.4118ZM10.9292 17.5919C10.9292 17.6563 10.9132 17.7147 10.8924 17.7575C10.8729 17.7977 10.8547 17.8135 10.8547 17.8135C10.8547 17.8136 10.8675 17.8027 10.897 17.7919C10.9255 17.7814 10.9665 17.7721 11.0196 17.7721V13.7721C9.02982 13.7721 6.9292 15.231 6.9292 17.5919H10.9292ZM11.0196 17.7721C11.0727 17.7721 11.1137 17.7814 11.1422 17.7919C11.1717 17.8027 11.1845 17.8136 11.1845 17.8135C11.1844 17.8135 11.1663 17.7977 11.1468 17.7575C11.126 17.7147 11.11 17.6563 11.11 17.5919H15.11C15.11 15.231 13.0094 13.7721 11.0196 13.7721V17.7721Z" fill="#7F56D9" mask="url(#path-8-inside-1_21_1042)"/>
<mask id="path-10-inside-2_21_1042" fill="white">
<ellipse cx="23.0049" cy="17.5919" rx="2.09039" ry="1.81985"/>
</mask>
<ellipse cx="23.0049" cy="17.5919" rx="2.09039" ry="1.81985" fill="black"/>
<path d="M23.0953 17.5919C23.0953 17.5276 23.1113 17.4692 23.1321 17.4263C23.1516 17.3862 23.1698 17.3703 23.1698 17.3703C23.1699 17.3703 23.157 17.3811 23.1275 17.392C23.099 17.4024 23.058 17.4118 23.0049 17.4118V21.4118C24.9947 21.4118 27.0953 19.9529 27.0953 17.5919H23.0953ZM23.0049 17.4118C22.9518 17.4118 22.9109 17.4024 22.8824 17.392C22.8528 17.3811 22.84 17.3703 22.84 17.3703C22.8401 17.3703 22.8583 17.3862 22.8778 17.4263C22.8986 17.4692 22.9146 17.5276 22.9146 17.5919H18.9146C18.9146 19.9529 21.0152 21.4118 23.0049 21.4118V17.4118ZM22.9146 17.5919C22.9146 17.6563 22.8986 17.7147 22.8778 17.7575C22.8583 17.7977 22.8401 17.8135 22.84 17.8135C22.84 17.8136 22.8528 17.8027 22.8824 17.7919C22.9109 17.7814 22.9518 17.7721 23.0049 17.7721V13.7721C21.0152 13.7721 18.9146 15.231 18.9146 17.5919H22.9146ZM23.0049 17.7721C23.058 17.7721 23.099 17.7814 23.1275 17.7919C23.157 17.8027 23.1699 17.8136 23.1698 17.8135C23.1698 17.8135 23.1516 17.7977 23.1321 17.7575C23.1113 17.7147 23.0953 17.6563 23.0953 17.5919H27.0953C27.0953 15.231 24.9947 13.7721 23.0049 13.7721V17.7721Z" fill="#7F56D9" mask="url(#path-10-inside-2_21_1042)"/>
</svg>
