<svg width="24" height="24" viewBox="0 0 24 24" fill="none" xmlns="http://www.w3.org/2000/svg">
<path d="M12.2502 10.25V11.18C12.2502 11.53 12.0702 11.86 11.7602 12.04L11.0002 12.5M10.4901 2.23L5.50015 4.1C4.35015 4.53 3.41016 5.89 3.41016 7.12V14.55C3.41016 15.73 4.19017 17.28 5.14017 17.99L9.44016 21.2C10.8502 22.26 13.1701 22.26 14.5801 21.2L18.8802 17.99C19.8302 17.28 20.6101 15.73 20.6101 14.55V7.12C20.6101 5.89 19.6701 4.53 18.5201 4.1L13.5302 2.23C12.6802 1.92 11.3201 1.92 10.4901 2.23ZM16.0002 11.5C16.0002 13.7091 14.2093 15.5 12.0002 15.5C9.79101 15.5 8.00015 13.7091 8.00015 11.5C8.00015 9.29086 9.79101 7.5 12.0002 7.5C14.2093 7.5 16.0002 9.29086 16.0002 11.5Z" stroke="#292D32" stroke-width="1.5" stroke-miterlimit="10" stroke-linecap="round" stroke-linejoin="round"/>
</svg>
