<svg width="28" height="28" viewBox="0 0 28 28" fill="none" xmlns="http://www.w3.org/2000/svg">
<path d="M10.1357 14.9652L9.48923 14.2022L9.48921 14.2022L10.1357 14.9652ZM10.1934 14.9099L9.48094 14.2082L9.48016 14.209L10.1934 14.9099ZM7.76343 16.9752L7.11698 16.2122L7.11697 16.2122L7.76343 16.9752ZM7.63348 17.112L8.45429 17.6832L8.45429 17.6832L7.63348 17.112ZM20.2262 15.0491L19.5337 15.7705L20.2262 15.0491ZM18.2016 13.1055L17.509 13.8269L17.509 13.8269L18.2016 13.1055ZM17.4497 13.1002L16.7674 12.3691L16.7648 12.3715L17.4497 13.1002ZM13.6995 16.6248L14.3818 17.3559L14.3844 17.3535L13.6995 16.6248ZM12.9361 16.6081L12.2201 17.3063L12.2215 17.3077L12.9361 16.6081ZM12.9262 16.598L12.2096 17.2955L12.2103 17.2962L12.9262 16.598ZM12.8726 16.546L13.5274 15.7901L13.5274 15.7901L12.8726 16.546ZM11.0457 14.9636L11.7004 14.2077L11.7004 14.2077L11.0457 14.9636ZM10.9919 14.9113L11.7088 14.2141L11.7081 14.2135L10.9919 14.9113ZM10.9823 14.9015L11.6985 14.2036L11.6972 14.2022L10.9823 14.9015ZM10.2038 14.8993L9.49274 14.1962L9.49132 14.1976L10.2038 14.8993ZM18.7245 8.09353V7.09353C18.1722 7.09353 17.7245 7.54125 17.7245 8.09353H18.7245ZM19.0998 8.09353H20.0998C20.0998 7.54125 19.6521 7.09353 19.0998 7.09353V8.09353ZM19.0998 8.4114V9.4114C19.6521 9.4114 20.0998 8.96369 20.0998 8.4114H19.0998ZM18.7245 8.4114H17.7245C17.7245 8.96369 18.1722 9.4114 18.7245 9.4114V8.4114ZM2.5 7.4375V20.5625H4.5V7.4375H2.5ZM7.4375 25.5H20.5625V23.5H7.4375V25.5ZM25.5 20.5625V7.4375H23.5V20.5625H25.5ZM20.5625 2.5H7.4375V4.5H20.5625V2.5ZM25.5 7.4375C25.5 4.7106 23.2894 2.5 20.5625 2.5V4.5C22.1848 4.5 23.5 5.81516 23.5 7.4375H25.5ZM20.5625 25.5C23.2894 25.5 25.5 23.2894 25.5 20.5625H23.5C23.5 22.1848 22.1848 23.5 20.5625 23.5V25.5ZM2.5 20.5625C2.5 23.2894 4.7106 25.5 7.4375 25.5V23.5C5.81516 23.5 4.5 22.1848 4.5 20.5625H2.5ZM4.5 7.4375C4.5 5.81516 5.81516 4.5 7.4375 4.5V2.5C4.71059 2.5 2.5 4.71059 2.5 7.4375H4.5ZM10.7821 15.7281C10.8431 15.6765 10.8934 15.6243 10.9067 15.6107L9.48016 14.209C9.47516 14.2141 9.47247 14.2168 9.47011 14.2192C9.46797 14.2213 9.46749 14.2218 9.46804 14.2212C9.46891 14.2204 9.47664 14.2129 9.48923 14.2022L10.7821 15.7281ZM8.40988 17.7381L10.7821 15.7281L9.48921 14.2022L7.11698 16.2122L8.40988 17.7381ZM8.45429 17.6832C8.43548 17.7102 8.41936 17.7278 8.41153 17.7359C8.40403 17.7436 8.40176 17.745 8.40989 17.7381L7.11697 16.2122C7.04008 16.2774 6.92016 16.3863 6.81267 16.5408L8.45429 17.6832ZM8.4375 17.7367C8.4375 17.7175 8.4434 17.6988 8.45429 17.6832L6.81267 16.5408C6.56925 16.8906 6.4375 17.3077 6.4375 17.7367H8.4375ZM8.4375 20.0156V17.7367H6.4375V20.0156H8.4375ZM7.98438 19.5625C8.23463 19.5625 8.4375 19.7654 8.4375 20.0156H6.4375C6.4375 20.8699 7.13006 21.5625 7.98438 21.5625V19.5625ZM20.0156 19.5625H7.98438V21.5625H20.0156V19.5625ZM19.5625 20.0156C19.5625 19.7654 19.7654 19.5625 20.0156 19.5625V21.5625C20.8699 21.5625 21.5625 20.8699 21.5625 20.0156H19.5625ZM19.5625 15.8382V20.0156H21.5625V15.8382H19.5625ZM19.5337 15.7705C19.5521 15.7882 19.5625 15.8126 19.5625 15.8382H21.5625C21.5625 15.268 21.33 14.7226 20.9187 14.3278L19.5337 15.7705ZM17.509 13.8269L19.5337 15.7705L20.9187 14.3278L18.8941 12.3841L17.509 13.8269ZM18.132 13.8313C17.9561 13.9954 17.6826 13.9935 17.509 13.8269L18.8941 12.3841C18.3016 11.8153 17.3678 11.8087 16.7674 12.3691L18.132 13.8313ZM14.3844 17.3535L18.1345 13.8289L16.7648 12.3715L13.0147 15.8961L14.3844 17.3535ZM12.2215 17.3077C12.8037 17.9023 13.7629 17.9336 14.3818 17.3559L13.0172 15.8938C13.1988 15.7243 13.4795 15.7337 13.6506 15.9085L12.2215 17.3077ZM12.2103 17.2962L12.2201 17.3063L13.652 15.91L13.6422 15.8999L12.2103 17.2962ZM12.2179 17.3019C12.2063 17.2918 12.1991 17.2847 12.1983 17.2839C12.1978 17.2834 12.1982 17.2839 12.2002 17.2859C12.2024 17.2881 12.2049 17.2907 12.2096 17.2955L13.6429 15.9006C13.6305 15.8879 13.5838 15.839 13.5274 15.7901L12.2179 17.3019ZM10.391 15.7195L12.2179 17.3019L13.5274 15.7901L11.7004 14.2077L10.391 15.7195ZM10.275 15.6085C10.2874 15.6213 10.3344 15.6704 10.391 15.7195L11.7004 14.2077C11.7121 14.2178 11.7193 14.2249 11.7201 14.2257C11.7206 14.2262 11.7202 14.2258 11.7182 14.2238C11.716 14.2215 11.7135 14.2189 11.7088 14.2141L10.275 15.6085ZM10.2661 15.5993L10.2757 15.6092L11.7081 14.2135L11.6985 14.2036L10.2661 15.5993ZM10.9149 15.6024C10.736 15.7833 10.4456 15.7828 10.2674 15.6007L11.6972 14.2022C11.0933 13.5849 10.0992 13.5829 9.49274 14.1962L10.9149 15.6024ZM10.9059 15.6115L10.9163 15.601L9.49132 14.1976L9.48094 14.2082L10.9059 15.6115ZM18.7245 9.09353H19.0998V7.09353H18.7245V9.09353ZM18.0998 8.09353V8.4114H20.0998V8.09353H18.0998ZM19.0998 7.4114H18.7245V9.4114H19.0998V7.4114ZM19.7245 8.4114V8.09353H17.7245V8.4114H19.7245Z" fill="#292D32"/>
</svg>
