<svg width="16" height="12" viewBox="0 0 16 12" fill="none" xmlns="http://www.w3.org/2000/svg">
<path d="M7.54414 3.00003C9.19914 3.00003 9.87914 4.17503 9.04914 5.61003L7.70914 7.92003C6.87914 9.35503 5.52415 9.35503 4.69415 7.92003L3.35415 5.61003C2.52415 4.17503 3.20414 3.00003 4.85915 3.00003L7.54414 3.00003Z" fill="#74DA3D" stroke="#74DA3D" stroke-width="1.5" stroke-miterlimit="10" stroke-linecap="round" stroke-linejoin="round"/>
<path d="M7.54414 3.00375C9.19914 3.00375 9.87914 4.17875 9.04914 5.61375L7.70914 7.92375C6.87914 9.35875 5.52415 9.35875 4.69415 7.92375L3.35415 5.61375C2.52415 4.17875 3.20414 3.00375 4.85915 3.00375L7.54414 3.00375Z" fill="#74DA3D" stroke="#74DA3D" stroke-width="1.5" stroke-miterlimit="10" stroke-linecap="round" stroke-linejoin="round"/>
<path d="M12.6508 5.5625V4.9905H13.7948V9H13.1623V5.5625H12.6508ZM14.6287 5.5625V4.9905H15.7727V9H15.1402V5.5625H14.6287Z" fill="#74DA3D"/>
</svg>
