<svg width="37" height="33" viewBox="0 0 37 33" fill="none" xmlns="http://www.w3.org/2000/svg">
<path d="M6.81543 14.0735C8.84806 13.3064 14.1016 11.748 18.8548 11.6511C23.6081 11.5542 28.5489 13.2257 30.4252 14.0735" stroke="#7F56D9" stroke-width="2"/>
<path d="M6.74219 12.7413C6.74219 6.90459 10.4607 1.7399 15.9987 1.13819C16.8068 1.05039 17.68 1 18.6202 1C19.5604 1 20.4337 1.05039 21.2418 1.13819C26.7797 1.7399 30.4983 6.9046 30.4983 12.7413C30.4983 18.2602 29.6368 23.1276 27.7123 26.5794C25.8253 29.9638 22.9212 32 18.6202 32C14.3193 32 11.4152 29.9638 9.5282 26.5794C7.60364 23.1276 6.74219 18.2602 6.74219 12.7413Z" stroke="#7F56D9" stroke-width="2"/>
<mask id="path-3-inside-1_21_1057" fill="white">
<ellipse cx="12.584" cy="17.5919" rx="2.0122" ry="1.81985"/>
</mask>
<ellipse cx="12.584" cy="17.5919" rx="2.0122" ry="1.81985" fill="black"/>
<path d="M12.5962 17.5919C12.5962 17.5401 12.6086 17.4911 12.6264 17.453C12.6431 17.4172 12.6602 17.4 12.6653 17.3954C12.6736 17.3879 12.6504 17.4118 12.584 17.4118V21.4118C14.6061 21.4118 16.5962 19.8859 16.5962 17.5919H12.5962ZM12.584 17.4118C12.5176 17.4118 12.4943 17.3879 12.5027 17.3954C12.5077 17.4 12.5248 17.4172 12.5416 17.453C12.5594 17.4911 12.5718 17.5401 12.5718 17.5919H8.57178C8.57178 19.8859 10.5619 21.4118 12.584 21.4118V17.4118ZM12.5718 17.5919C12.5718 17.6437 12.5594 17.6928 12.5416 17.7308C12.5248 17.7666 12.5077 17.7838 12.5027 17.7884C12.4943 17.796 12.5176 17.7721 12.584 17.7721V13.7721C10.5619 13.7721 8.57178 15.298 8.57178 17.5919H12.5718ZM12.584 17.7721C12.6504 17.7721 12.6736 17.796 12.6653 17.7884C12.6602 17.7838 12.6431 17.7666 12.6264 17.7308C12.6086 17.6928 12.5962 17.6437 12.5962 17.5919H16.5962C16.5962 15.298 14.6061 13.7721 12.584 13.7721V17.7721Z" fill="#7F56D9" mask="url(#path-3-inside-1_21_1057)"/>
<mask id="path-5-inside-2_21_1057" fill="white">
<ellipse cx="24.1206" cy="17.5919" rx="2.0122" ry="1.81985"/>
</mask>
<ellipse cx="24.1206" cy="17.5919" rx="2.0122" ry="1.81985" fill="black"/>
<path d="M24.1328 17.5919C24.1328 17.5401 24.1452 17.4911 24.163 17.453C24.1797 17.4172 24.1968 17.4 24.2019 17.3954C24.2102 17.3879 24.187 17.4118 24.1206 17.4118V21.4118C26.1427 21.4118 28.1328 19.8859 28.1328 17.5919H24.1328ZM24.1206 17.4118C24.0542 17.4118 24.031 17.3879 24.0393 17.3954C24.0444 17.4 24.0614 17.4172 24.0782 17.453C24.096 17.4911 24.1084 17.5401 24.1084 17.5919H20.1084C20.1084 19.8859 22.0985 21.4118 24.1206 21.4118V17.4118ZM24.1084 17.5919C24.1084 17.6437 24.096 17.6928 24.0782 17.7308C24.0614 17.7666 24.0444 17.7838 24.0393 17.7884C24.031 17.796 24.0542 17.7721 24.1206 17.7721V13.7721C22.0985 13.7721 20.1084 15.298 20.1084 17.5919H24.1084ZM24.1206 17.7721C24.187 17.7721 24.2102 17.796 24.2019 17.7884C24.1968 17.7838 24.1797 17.7666 24.163 17.7308C24.1452 17.6928 24.1328 17.6437 24.1328 17.5919H28.1328C28.1328 15.298 26.1427 13.7721 24.1206 13.7721V17.7721Z" fill="#7F56D9" mask="url(#path-5-inside-2_21_1057)"/>
<path d="M6.82929 13.8309C5.53254 14.1544 3.60977 15.4081 3.34146 19.6544C3.10409 23.4113 4.01219 24.0221 4.01219 26.5699C4.01219 27.89 2.71545 29.7243 2 30.4522C3.07316 31.2206 5.37278 32.2121 6.82927 31.9081C9.10976 31.4321 9.95935 29.6434 10.5854 28.875" stroke="#7F56D9" stroke-width="2"/>
<path d="M30.1707 13.8309C31.4675 14.1544 33.3902 15.4081 33.6585 19.6544C33.8959 23.4113 32.9878 24.0221 32.9878 26.5699C32.9878 27.89 34.2846 29.7243 35 30.4522C33.9268 31.2206 31.6272 32.2121 30.1707 31.9081C27.8902 31.4321 27.0407 29.6434 26.4146 28.875" stroke="#7F56D9" stroke-width="2"/>
<path d="M18.3662 4.125V9.58456" stroke="#7F56D9" stroke-width="2"/>
<path d="M21.3838 6.86005L15.3472 6.84945" stroke="#7F56D9" stroke-width="2"/>
</svg>
