<svg width="15" height="15" viewBox="0 0 15 15" fill="none" xmlns="http://www.w3.org/2000/svg">
<path d="M1 7.5V9.375C1 12.5 2.25 13.75 5.375 13.75H9.125C12.25 13.75 13.5 12.5 13.5 9.375V5.625C13.5 3.675 13.0125 2.45 11.8812 1.8125C11.5625 1.63125 10.925 1.49374 10.3438 1.39999M7.875 8.125H11M6.625 10.625H11M1.84373 1.25H7.40625C7.86875 1.25 8.24998 1.63125 8.24998 2.09375V3.01874C8.24998 3.35624 8.03749 3.775 7.83124 3.9875L6.01877 5.5875C5.76877 5.8 5.59999 6.21874 5.59999 6.55624V8.36876C5.59999 8.61876 5.43125 8.95626 5.21875 9.08751L4.63125 9.46875C4.08125 9.80625 3.32498 9.425 3.32498 8.75V6.51875C3.32498 6.225 3.15624 5.84376 2.98749 5.63126L1.3875 3.94375C1.175 3.73125 1.00626 3.35624 1.00626 3.09999V2.13125C1.00001 1.63125 1.38123 1.25 1.84373 1.25Z" stroke="#606469" stroke-width="1.2" stroke-linecap="round" stroke-linejoin="round"/>
</svg>
