<svg width="35" height="33" viewBox="0 0 35 33" fill="none" xmlns="http://www.w3.org/2000/svg">
<path d="M5.02734 14.0735C7.13896 13.3064 12.5967 11.748 17.5346 11.6511C22.4726 11.5542 27.6054 13.2257 29.5546 14.0735" stroke="#7F56D9" stroke-width="2"/>
<path d="M4.9126 12.7413C4.9126 6.92327 8.70484 1.82146 14.2682 1.17087C15.1909 1.06297 16.1977 1 17.2911 1C18.3845 1 19.3913 1.06297 20.314 1.17087C25.8774 1.82146 29.6696 6.92327 29.6696 12.7413C29.6696 15.5491 29.6689 18.1684 29.4643 20.541C29.2595 22.9146 28.8554 24.9678 28.0875 26.6514C27.33 28.312 26.2159 29.6205 24.5471 30.5299C22.8588 31.4498 20.5306 32 17.2911 32C14.0515 32 11.7234 31.4498 10.0351 30.5299C8.3663 29.6205 7.25222 28.312 6.49472 26.6514C5.72676 24.9678 5.32266 22.9146 5.11794 20.541C4.91331 18.1684 4.9126 15.5491 4.9126 12.7413Z" stroke="#7F56D9" stroke-width="2"/>
<path d="M5.02733 14.8015C3.40147 15.0846 0.344851 16.403 1.12526 19.4118C1.90568 22.4206 4.88797 22.2022 6.28157 21.7169" stroke="#7F56D9" stroke-width="2"/>
<path d="M5.02733 14.8015C3.40147 15.0846 0.344851 16.403 1.12526 19.4118C1.90568 22.4206 4.88797 22.2022 6.28157 21.7169" stroke="#7F56D9" stroke-width="2"/>
<path d="M29.9727 14.8015C31.5985 15.0846 34.6551 16.403 33.8747 19.4118C33.0943 22.4206 30.112 22.2022 28.7184 21.7169" stroke="#7F56D9" stroke-width="2"/>
<ellipse cx="11.0196" cy="17.5919" rx="2.09039" ry="1.81985" fill="#7F56D9"/>
<ellipse cx="23.0045" cy="17.5919" rx="2.09039" ry="1.81985" fill="#7F56D9"/>
<path d="M3.92739 9.6759L4.50861 11.2205C5.04311 12.641 6.55426 13.4385 8.02857 13.0782L26.7321 8.5076C28.1893 8.15149 29.2427 6.73665 28.687 5.34329C28.3541 4.50868 27.8422 3.6801 27.0459 3.03308C25.5281 1.79981 23.0537 1.33941 21.3939 1.23461C21.0762 1.21456 20.7588 1.26002 20.4541 1.35184L5.86958 5.74696C4.20728 6.2479 3.31596 8.05099 3.92739 9.6759Z" fill="white" stroke="#7F56D9" stroke-width="2" stroke-linecap="round" stroke-linejoin="round"/>
<path d="M8.09326 7.76471L9.06878 10.1912" stroke="#7F56D9" stroke-width="2" stroke-linecap="square" stroke-linejoin="round"/>
<path d="M9.98389 8.57782L7.17763 9.37807" stroke="#7F56D9" stroke-width="2" stroke-linecap="square" stroke-linejoin="round"/>
</svg>
