<svg width="340" height="223" viewBox="0 0 340 223" fill="none" xmlns="http://www.w3.org/2000/svg">
<g clip-path="url(#clip0_203_5689)">
<rect width="340" height="223" rx="6" fill="url(#paint0_linear_203_5689)" fill-opacity="0.85"/>
<path d="M229.588 280.945C219.04 269.742 211.22 256.257 206.736 241.539C202.251 226.821 201.224 211.266 203.733 196.086C206.242 180.906 212.22 166.509 221.202 154.017C230.185 141.524 241.928 131.273 255.519 124.061C269.111 116.848 284.183 112.87 299.563 112.434C314.943 111.998 330.216 115.118 344.194 121.549C358.172 127.98 370.477 137.551 380.151 149.514C389.826 161.478 396.61 175.514 399.974 190.528L359.341 199.633C357.378 190.871 353.419 182.68 347.773 175.698C342.127 168.716 334.946 163.131 326.788 159.377C318.631 155.624 309.718 153.804 300.742 154.058C291.766 154.312 282.97 156.634 275.038 160.843C267.107 165.052 260.253 171.035 255.011 178.325C249.769 185.616 246.28 194.018 244.816 202.877C243.352 211.736 243.951 220.813 246.569 229.403C249.186 237.992 253.749 245.862 259.905 252.4L229.588 280.945Z" fill="#50EDBB" fill-opacity="0.7"/>
<rect x="27" y="30" width="60" height="60" rx="30" fill="white"/>
<path d="M51.3333 45.8333V50.0833M62.6667 45.8333V50.0833M44.9583 55.8774H69.0417M61.7742 74.1666C62.7658 75.0591 64.0692 75.5833 65.5 75.5833C67.5683 75.5833 69.3675 74.4782 70.345 72.8349C70.8692 71.9849 71.1667 70.9791 71.1667 69.9166C71.1667 68.4858 70.6283 67.1824 69.75 66.1766M61.7742 74.1666C61.335 73.7983 60.9525 73.3449 60.655 72.8349C60.1308 71.9849 59.8333 70.9791 59.8333 69.9166C59.8333 66.7858 62.3692 64.2499 65.5 64.2499C67.2 64.2499 68.7158 65.0007 69.75 66.1766M61.7742 74.1666H51.3333C46.375 74.1666 44.25 71.3333 44.25 67.0833V55.0416C44.25 50.7916 46.375 47.9583 51.3333 47.9583H62.6667C67.625 47.9583 69.75 50.7916 69.75 55.0416V66.1766M63.29 69.9166L64.6925 71.3191L67.71 68.5282M56.9936 62.4083H57.0063M51.7503 62.4083H51.763M51.7503 66.6583H51.763" stroke="#36EAB2" stroke-width="1.5" stroke-linecap="round" stroke-linejoin="round"/>
</g>
<defs>
<linearGradient id="paint0_linear_203_5689" x1="330.755" y1="223" x2="11.745" y2="-0.468269" gradientUnits="userSpaceOnUse">
<stop stop-color="#EDFDF8"/>
<stop offset="1" stop-color="#17CE94"/>
</linearGradient>
<clipPath id="clip0_203_5689">
<rect width="340" height="223" rx="6" fill="white"/>
</clipPath>
</defs>
</svg>
