<svg width="340" height="223" viewBox="0 0 340 223" fill="none" xmlns="http://www.w3.org/2000/svg">
<g clip-path="url(#clip0_203_5705)">
<rect width="340" height="223" rx="6" fill="url(#paint0_linear_203_5705)" fill-opacity="0.85"/>
<path d="M229.588 280.945C219.04 269.742 211.22 256.257 206.736 241.539C202.251 226.821 201.224 211.266 203.733 196.086C206.242 180.906 212.22 166.509 221.202 154.017C230.185 141.524 241.928 131.273 255.519 124.061C269.111 116.848 284.183 112.87 299.563 112.434C314.943 111.998 330.216 115.118 344.194 121.549C358.172 127.98 370.477 137.551 380.151 149.514C389.826 161.478 396.61 175.514 399.974 190.528L359.341 199.633C357.378 190.871 353.419 182.68 347.773 175.698C342.127 168.716 334.946 163.131 326.788 159.377C318.631 155.624 309.718 153.804 300.742 154.058C291.766 154.312 282.97 156.634 275.038 160.843C267.107 165.052 260.253 171.035 255.011 178.325C249.769 185.616 246.28 194.018 244.816 202.877C243.352 211.736 243.951 220.813 246.569 229.403C249.186 237.992 253.749 245.862 259.905 252.4L229.588 280.945Z" fill="#EDA450" fill-opacity="0.7"/>
<rect x="27" y="30" width="60" height="60" rx="30" fill="white"/>
<path d="M61.5901 45.8333H52.4101C47.0835 45.8333 46.6726 50.6216 49.5485 53.2283L64.4518 66.7716C67.3276 69.3783 66.9168 74.1666 61.5901 74.1666H52.4101C47.0835 74.1666 46.6726 69.3783 49.5485 66.7716L64.4518 53.2283C67.3276 50.6216 66.9168 45.8333 61.5901 45.8333Z" stroke="#ECA351" stroke-width="1.5" stroke-linecap="round" stroke-linejoin="round"/>
</g>
<defs>
<linearGradient id="paint0_linear_203_5705" x1="330.755" y1="223" x2="11.745" y2="-0.468269" gradientUnits="userSpaceOnUse">
<stop stop-color="#FDF6ED"/>
<stop offset="1" stop-color="#EA9432"/>
</linearGradient>
<clipPath id="clip0_203_5705">
<rect width="340" height="223" rx="6" fill="white"/>
</clipPath>
</defs>
</svg>
