<svg width="340" height="223" viewBox="0 0 340 223" fill="none" xmlns="http://www.w3.org/2000/svg">
<g clip-path="url(#clip0_203_5604)">
<rect width="340" height="223" rx="6" fill="url(#paint0_linear_203_5604)" fill-opacity="0.85"/>
<path d="M229.588 280.945C219.04 269.742 211.22 256.257 206.736 241.539C202.251 226.821 201.224 211.266 203.733 196.086C206.242 180.906 212.22 166.509 221.202 154.017C230.185 141.524 241.928 131.273 255.519 124.061C269.111 116.848 284.183 112.87 299.563 112.434C314.943 111.998 330.216 115.118 344.194 121.549C358.172 127.98 370.477 137.551 380.151 149.514C389.826 161.478 396.61 175.514 399.974 190.528L359.341 199.633C357.378 190.871 353.419 182.68 347.773 175.698C342.127 168.716 334.946 163.131 326.788 159.377C318.631 155.624 309.718 153.804 300.742 154.058C291.766 154.312 282.97 156.634 275.038 160.843C267.107 165.052 260.253 171.035 255.011 178.325C249.769 185.616 246.28 194.018 244.816 202.877C243.352 211.736 243.951 220.813 246.569 229.403C249.186 237.992 253.749 245.862 259.905 252.4L229.588 280.945Z" fill="#7150ED" fill-opacity="0.7"/>
<rect x="27" y="30" width="60" height="60" rx="30" fill="white"/>
<path d="M50.6667 44.1667V48.9167M63.3333 44.1667V48.9167M43.5417 55.3926H70.4583M62.8499 62.6918H62.8642M62.8499 67.4418H62.8642M56.9929 62.6918H57.0071M56.9929 67.4418H57.0071M51.1327 62.6918H51.1469M51.1327 67.4418H51.1469M71.25 54.4584V67.9167C71.25 72.6667 68.875 75.8334 63.3333 75.8334H50.6667C45.125 75.8334 42.75 72.6667 42.75 67.9167V54.4584C42.75 49.7084 45.125 46.5417 50.6667 46.5417H63.3333C68.875 46.5417 71.25 49.7084 71.25 54.4584Z" stroke="#7252ED" stroke-width="1.5" stroke-linecap="round" stroke-linejoin="round"/>
</g>
<defs>
<linearGradient id="paint0_linear_203_5604" x1="330.755" y1="223" x2="11.745" y2="-0.468269" gradientUnits="userSpaceOnUse">
<stop stop-color="#F1EDFD"/>
<stop offset="1" stop-color="#5932EA"/>
</linearGradient>
<clipPath id="clip0_203_5604">
<rect width="340" height="223" rx="6" fill="white"/>
</clipPath>
</defs>
</svg>
