<svg width="18" height="18" viewBox="0 0 18 18" fill="none" xmlns="http://www.w3.org/2000/svg">
<path d="M2.55762 16.5C2.55762 13.5975 5.44511 11.25 9.00011 11.25C9.72011 11.25 10.4176 11.3475 11.0701 11.5275M14.6176 13.485H12.3826M13.5001 12.39V14.6325M12.7501 5.25C12.7501 7.32107 11.0712 9 9.00011 9C6.92905 9 5.25011 7.32107 5.25011 5.25C5.25011 3.17893 6.92905 1.5 9.00011 1.5C11.0712 1.5 12.7501 3.17893 12.7501 5.25ZM16.5001 13.5C16.5001 13.74 16.4701 13.9725 16.4101 14.1975C16.3426 14.4975 16.2226 14.79 16.0651 15.045C15.5476 15.915 14.5951 16.5 13.5001 16.5C12.7276 16.5 12.0301 16.2075 11.5051 15.7275C11.2801 15.5325 11.0851 15.3 10.9351 15.045C10.6576 14.595 10.5001 14.0625 10.5001 13.5C10.5001 12.69 10.8226 11.9475 11.3476 11.4075C11.8951 10.845 12.6601 10.5 13.5001 10.5C14.3851 10.5 15.1876 10.8825 15.7276 11.4975C16.2076 12.03 16.5001 12.735 16.5001 13.5Z" stroke="#292D32" stroke-width="1.5" stroke-miterlimit="10" stroke-linecap="round" stroke-linejoin="round"/>
</svg>
